# xmcd CD database file
#
# Track frame offsets:
#	150
#	14810
#	26781
#	42854
#	63278
#	77981
#	89072
#	111916
#	129010
#	145974
#	161675
#	181314
#	191622
#	202277
#
# Disc length: 2985 seconds
#
# Revision: 0
# Processed by: cddbd v1.5.1PL0 Copyright (c) Steve Scherf et al.
# Submitted via: CDex 1.51
#
DISCID=cd0ba70e
DTITLE=Jennifer Grimm - A Christmas with Family and Friends
DYEAR=2003
DGENRE=Jazz
TTITLE0=Cool Yule
TTITLE1=It's Beginning To Look A Lot Like Christmas
TTITLE2=The Christmas Waltz
TTITLE3=Winter Weather
TTITLE4=Silver And Gold
TTITLE5=Christmas Island
TTITLE6=The Twelve Days Of Christmas
TTITLE7=Skater's Waltz
TTITLE8=I'll Be Home For Christmas
TTITLE9=Baby, It's Cold Outside
TTITLE10=What Are You Doing On New Year's Eve?
TTITLE11=Have Yourself A Merry Little Christmas
TTITLE12=A Holly Jolly Christmas/Jingle, Jingle, Jingle
TTITLE13=Joy To The World/Silent Night
EXTD=YEAR: 2003
EXTT0=
EXTT1=
EXTT2=
EXTT3=
EXTT4=
EXTT5=
EXTT6=
EXTT7=
EXTT8=
EXTT9=
EXTT10=
EXTT11=
EXTT12=
EXTT13=
PLAYORDER=
